<svg id="Layer_1_copy" data-name="Layer 1 copy" xmlns="http://www.w3.org/2000/svg"
    viewBox="0 0 309.04 170.28">
    <defs>
        <style>
            .cls-1{fill:none;stroke:#000;stroke-miterlimit:10;stroke-width:4px;}.cls-2{fill-rule:evenodd;}</style>
    </defs>
    <path
        d="M68.63,110.7l85.94,15.92.7.4,18.88,10.89-24.58,2.17-20.63,1.81,19.82,6,29.82,9c-12.65,3.43-14,3.93-13.66,7.58a4,4,0,0,0,3.7,3.66c1.16.25,5.52,1.77,11.32,3.89l-27.8,0-28.95,0L151,179.85l29.74,8.42-28,4.35-12.59,2,11.45,5.59,15.93,7.77-18.66-1-16.62-.87,14.41,8.32,13.54,7.83L51.69,202.14l3.69-19.93H56a26.14,26.14,0,0,0,8.75-50.77l3.84-20.75m-.32-4.07a3.6,3.6,0,0,0-3.54,3l-4.58,24.75A22.14,22.14,0,0,1,56,178.22a21.8,21.8,0,0,1-3.92-.35L47.69,201.8a3.6,3.6,0,0,0,2.89,4.2L182,230.35l-.94-.68L148.71,211,187,213l-33.57-16.39,46.07-7.16L152.13,176l49.82.08s-30.37-11.73-32.88-11.9,24.18-7,24.18-7l-43.33-13.12,37.22-3.27-29.87-17.23.48-.42L69,106.69a3.68,3.68,0,0,0-.66-.06Z"
        transform="translate(-47.63 -100.21)" />
    <line class="cls-1" x1="238" y1="31.6" x2="251.46" y2="130.69" />
    <path
        d="M340.1,127.93l2.83,20.87a26.16,26.16,0,0,0-18.6,28.63,26.23,26.23,0,0,0,25.57,22.62l2.72,20-95.79,13-.79-.17-20.3-4.24L256.66,223l18.95-5.16-19.46-2.67-24.39-3.33,30.17-15.42,16.3-8.33-18.29.77-20.24.85,19.83-6.49L280,176.5l-21.52-1.08c-.7,0-12.94-.65-22.85-1,3.29-2.17,7-4.61,10.62-6.9l12.07-7.71-14.32.35-24.56.59,15.3-6.57,11.65-5L234,146.62,221.57,144l118.53-16.1m.34-4.05a2.77,2.77,0,0,0-.49,0l-141.9,19.27,1.36.32,33.76,7-34.33,14.76,45.27-1.11s-22.27,14.24-20.9,14.24l.12,0a20.42,20.42,0,0,1,3.23-.14c8.8,0,31.72,1.15,31.72,1.15l-47.34,15.52,49.17-2.07-41.52,21.21,37,5.07-37,10.07,36.59,7.64-1.31.68L353.55,224a3.61,3.61,0,0,0,3.08-4.06l-3.27-24.11-.14,0a22.15,22.15,0,1,1-6-43.89h.15L344,127a3.61,3.61,0,0,0-3.57-3.12Z"
        transform="translate(-47.63 -100.21)" />
    <g id="layer1">
        <g id="text11467">
            <path id="path5127" class="cls-2"
                d="M199.8,238.14l-4,2.73-.93,0h-.56l-.43.06-.45.1-.47.14-.47.19-.49.22-.49.27-.49.3-.49.34-.48.39-.48.41-.45.44-.42.45-.38.46-.34.46-.31.47-.26.46-.22.46-.18.45-.14.44-.09.43-.05.4v.39l.05.36,0,.17.06.16.07.16.08.14.09.14.11.13.12.11.13.11.14.09.14.08.16.07.17.06.35.08.38,0h.41l.44-.06.45-.1.46-.14.48-.19.48-.22.49-.27.49-.3.49-.34.39-.31,0,0a10.94,10.94,0,0,0,3.15-4.09l.2-.64.06-.25,0-.4v-.39l-.05-.36,0-.17,0-.12.22-.56,2.85-3.45Zm5.07,6-4.37,2.67-.16,0-.36-.08-.38,0h-.41l-.26,0-.65.15a14.09,14.09,0,0,0-4.33,2.81l0-.05-.34.36-.38.46-.34.47-.31.46-.26.47-.22.46-.19.45-.13.44-.09.42,0,.41v.38l0,.37,0,.16.06.17.07.15.08.15.09.13.11.13.12.12.13.1.13.1.15.08.16.07.17.05.35.08.38,0h.41l.44-.06.44-.1.47-.14.47-.18.49-.23.49-.26.49-.31.49-.34.48-.38.48-.41.45-.44.42-.45.38-.46.34-.47.31-.46.26-.47.22-.46.18-.45.14-.44.1-.42,0-.41v-.15l.13-.93,3.05-3.7Zm-17.54-6.11h0v0h0l0,0H187l-.08,0h-.18l-.2,0-.22,0-.23.07-.25.09-.26.11-.27.14-.55.33-.58.42-.58.49-.53.54-.47.54-.38.52-.15.26-.14.25-.11.24,0,.05,0,0-.32.28-.32.31-.3.34-.29.39-.28.4-.27.44-.24.47-.22.49-.2.5-.16.5-.13.49-.1.48-.07.47,0,.45v.44l0,.41.06.39.09.36.11.33.15.3.18.26.21.23.11.09.12.09.13.07.13.06.14.05.15,0,.14,0h.16l.3,0,.32-.07.32-.11.32-.15.33-.2.32-.24.32-.27.32-.32.3-.34.29-.38.28-.41.26-.44.25-.47.22-.48.2-.51.16-.49.13-.49.1-.49.07-.47,0-.45v-.43l0-.41-.06-.4-.09-.36-.11-.33-.15-.3-.18-.26-.21-.22-.11-.1-.12-.08-.09-.06h0l.19-.37.21-.37.24-.36.27-.37.28-.35.29-.32.3-.3.3-.28.31-.25.31-.22,0,0,.05,0,.09-.06h0Zm16.57,18h0l-.07.09,0,0,0,.05-.24.29-.27.29-.31.28-.32.27-.35.27-.37.25-.38.24-.39.2-.38.18-.38.16h0l0-.1-.07-.13-.09-.12-.2-.22-.25-.2-.28-.17-.32-.15-.36-.12-.38-.09-.41-.06-.43,0h-.46l-.47,0-.49.06-.5.09-.51.13-.51.15-.51.18-.48.21-.46.23-.43.24-.41.26-.37.27-.33.29-.31.3-.26.3-.22.31-.18.31-.14.31-.09.31,0,.3v.3l0,.15,0,.14,0,.14.07.14.07.12.09.12.2.23.25.2.28.17.32.14.35.12.39.09.41.06.43,0h.46l.47,0,.49-.06.5-.09.51-.12.51-.16.51-.18.48-.2.46-.23.43-.24.41-.27.37-.27.33-.29.31-.29v0l.06,0,.25-.09.26-.11.27-.14.55-.33.58-.43.58-.48.53-.54.47-.54.38-.53.15-.25.14-.25.11-.24.09-.22.05-.22,0-.2v-.45h0v0h0l0,0h0v0h0Zm-16-2.07-.31-.3-.33-.27-.36-.22-.37-.18-.39-.14-.4-.11a12,12,0,0,0-4.11,1l-.42.06h-.42l-.41,0-.41-.06-.4-.11-.39-.14a7.8,7.8,0,0,0-3-1.2l-.42,0h-.42l-.41.06-.68.18-.15.05-.4.17-.38.22-.37.25-.35.29-.32.33-.29.35-.24.36-.21.39-.17.39-.12.41-.09.41,0,.41V257l0,.41.07.41.11.4.15.39a2.49,2.49,0,0,0,1.48,1.7h0l.22.14.37.18.39.14.4.11c2.44.63,4.63,1.79,5.36,6.08l.07.4a3.62,3.62,0,0,0,2.33,2.81l.39.15.4.1.41.06.41,0h.42l.42-.06.41-.09.41-.14.4-.17.38-.22.37-.25.35-.29.32-.33.29-.35.24-.36.21-.39.17-.39.13-.41.09-.41,0-.41v-.42l0-.41-.07-.41-.62-1.24-.14-.39-.11-.4-.08-.4,0-.41v-.42l.05-.42.09-.41.13-.4,1.24-2.58.09-.41.05-.41v-.42l0-.41-.07-.41-.11-.4-.15-.39-.19-.37-.24-.35-.27-.33Z"
                transform="translate(-47.63 -100.21)" />
        </g>
    </g>
    <g id="layer1-2" data-name="layer1">
        <g id="text11467-2" data-name="text11467">
            <path id="path5127-2" data-name="path5127" class="cls-2"
                d="M189.4,196l1.47,4.57-.23.91-.06.14-.1.39-.07.43,0,.46v.49l0,.51.07.53.11.54.15.56.18.57.22.57.26.58.29.56.31.53.33.5.34.46.35.43.37.39.37.35.39.3.37.26.38.21.38.17.37.11.36.06h.34l.17,0,.16,0,.16-.06.16-.06.14-.08.14-.09.13-.11.12-.12.11-.13.11-.14.17-.31.15-.36.1-.4.07-.43,0-.45v-.49l0-.51-.07-.53-.11-.54-.15-.56-.18-.57-.18-.46,0,0a10.86,10.86,0,0,0-3-4.21l-.55-.38-.22-.13-.38-.16-.37-.11-.35-.06h-.31l-.46-.38L189.4,196Zm7.26-3.09,1.28,5-.1.14-.18.31-.14.36-.11.4,0,.25-.05.67a14.3,14.3,0,0,0,1.41,5l0,0,.25.42.33.5.34.47.36.42.37.39.37.35.38.3.38.26.38.22.37.16.37.11.36.06h.35l.17,0,.16,0,.16-.05.15-.07.15-.08.14-.09.13-.1.12-.12.11-.14.1-.13.18-.32.14-.36.11-.39.07-.43,0-.46v-.49l0-.51-.07-.53-.11-.54-.15-.56-.18-.57-.23-.57-.25-.58-.29-.56-.31-.53-.33-.5-.34-.47-.36-.42-.37-.39-.37-.35-.38-.3-.38-.26-.38-.21-.37-.17-.15,0-.85-.39-2.65-4Zm-11,15h-.09l0,0h0v0h0v0l0,0v0l0,0,0,.07,0,.05v0l0,.08,0,.2,0,.22v.51l0,.27,0,.3.16.63.23.68.3.69.35.67.38.6.39.52.21.23.19.2.2.17,0,0v0l.18.38.2.39.24.39.28.4.31.38.34.38.38.37.4.36.42.33.43.31.43.27.43.23.43.2.43.17.41.13.41.09.38.06.38,0h.35l.33-.06.3-.09.27-.13.13-.08.11-.09.11-.1.1-.11.09-.12.07-.13.07-.14.05-.14.07-.3,0-.32v-.34l-.05-.35-.1-.37-.13-.38-.17-.39-.21-.39-.24-.39-.28-.39-.31-.39-.34-.38-.37-.37-.4-.36-.43-.33-.42-.3-.44-.27-.43-.24-.43-.2-.42-.16-.41-.13-.41-.1-.39-.06-.37,0-.35,0-.33.05-.3.09-.27.14-.13.08-.12.09-.07.07h0l-.29-.28-.29-.31-.28-.34-.27-.36-.26-.37-.22-.38-.2-.37-.18-.37-.15-.37-.11-.36,0-.06v0l0-.11h0Zm22.06-10.58h0l.06.09,0,.05,0,0,.21.32.19.35.18.37.17.39.15.41.13.43.12.43.08.43.06.42,0,.41h0l-.1,0-.15,0-.14,0-.27.12-.26.18-.25.23-.23.26-.22.3-.2.35-.18.37-.15.4-.14.44-.11.46-.09.48-.06.51,0,.52v.54l0,.53.06.53.08.5.11.49.13.46.15.43.18.41.19.37.21.34.23.31.25.26.26.22.27.18.27.13.15.05.14,0,.15,0h.3l.14,0,.15,0,.13-.05.28-.13.26-.18.25-.22.23-.26.22-.31.2-.33.17-.38.16-.41.14-.43.11-.46.09-.48.06-.51,0-.52v-.54l0-.54-.06-.52-.08-.51-.11-.48-.13-.46-.15-.43-.18-.41-.19-.38,0,0v-.32l0-.28,0-.3-.16-.63-.24-.68-.29-.69-.36-.67-.38-.6-.39-.52-.2-.22-.2-.2-.19-.18-.19-.15-.19-.12-.18-.09-.09,0h-.09l-.08,0h-.39ZM201.08,212l-.37.21-.35.24-.32.28-.28.3-.25.33-.22.35A12.17,12.17,0,0,0,199,218l-.07.41-.11.4-.14.4-.18.37-.22.35-.25.33a7.88,7.88,0,0,0-2,2.5l-.14.39-.11.4-.07.42,0,.7v.15l.05.43.09.44.13.42.18.42.22.41.25.37.28.34.3.31.33.28.35.24.37.2.38.17.4.13.4.09.41.06h.41l.42,0a2.5,2.5,0,0,0,2.06-.91h0l.19-.17.29-.3.25-.33.22-.35c1.32-2.15,3.07-3.9,7.38-3.35l.41.05a3.64,3.64,0,0,0,3.37-1.4l.25-.33.22-.35.17-.38.15-.39.11-.4.07-.41,0-.43v-.43l-.05-.43-.09-.43-.14-.43-.17-.42-.22-.4-.25-.37-.28-.35-.31-.31-.32-.27-.35-.24-.37-.21-.38-.17-.4-.13-.4-.09-.41,0-1.37.23-.41,0-.42,0-.41,0-.4-.09-.4-.13-.38-.17-.36-.2-.36-.24-2.09-1.95-.37-.2-.38-.17-.4-.13-.4-.1-.41,0-.42,0-.41,0-.41.08-.41.12-.4.16Z"
                transform="translate(-47.63 -100.21)" />
        </g>
    </g>
    <g id="layer1-3" data-name="layer1">
        <g id="text11467-3" data-name="text11467">
            <path id="path5127-3" data-name="path5127" class="cls-2"
                d="M203.25,100.21l-2.48,4.1-.83.43-.14.05-.37.18-.37.23-.37.28-.37.32-.35.36-.36.4-.33.44-.33.48-.3.51-.29.55-.27.57-.23.59-.2.58-.15.58-.13.56-.09.55,0,.53,0,.51,0,.49.05.45.09.43.13.39.15.35.2.31.1.13.12.13.13.12.13.09.14.09.15.07.16.06.16,0,.16,0,.17,0h.35l.35-.08.37-.12.37-.18.37-.23.37-.27.36-.33.36-.36.35-.4.34-.44.32-.48.31-.51.23-.44h-.05a11,11,0,0,0,1.2-5l-.07-.67-.06-.25-.12-.39-.16-.35-.19-.31-.11-.13-.09-.1,0-.6,1.18-4.31Zm7.1,3.43-2.89,4.23-.17,0-.36.07-.36.13-.37.18-.22.13-.54.41a14.08,14.08,0,0,0-2.8,4.33l0,0-.16.47-.16.57-.12.57-.09.54-.05.54v.5l0,.49,0,.46.09.42.12.39.16.35.2.31.1.14.12.13.13.11.13.1.14.09.15.07.16.06.16,0,.16,0h.34l.18,0,.35-.07.37-.13.37-.17.36-.23.37-.28.37-.32.36-.36.35-.41.34-.44.32-.48.31-.51.28-.54.27-.58.23-.58.2-.58.16-.58.12-.56.09-.55.05-.53v-.51l0-.49,0-.46-.09-.42-.12-.39-.06-.14-.27-.9,1.27-4.63Zm-18.5,1.6h-.37l-.09,0,0,0h0l-.08,0-.17.09-.19.13-.18.15-.19.19-.19.21-.19.23-.37.54-.35.62-.33.68-.27.7-.2.69-.13.63,0,.3,0,.28v.32l0,0-.17.38-.16.42-.14.43-.11.47-.09.49-.06.51,0,.52v.54l0,.54.06.52.07.5.11.48.13.46.16.42.17.4.2.37.21.33.23.29.24.26.26.21.26.17.29.12.14,0,.14,0h.45l.14,0,.15,0,.14,0,.27-.14.26-.19.25-.23.23-.28.22-.31.2-.35.17-.39.16-.41.14-.44.11-.46.09-.49.06-.51,0-.53v-.53l0-.54-.05-.52-.09-.5-.1-.48-.14-.46-.15-.43-.17-.39-.2-.37-.21-.33-.23-.3-.24-.25-.26-.21-.27-.17-.28-.12-.14,0-.14,0h-.11l0-.41,0-.42.07-.43.09-.44.11-.44.14-.41.15-.4.16-.38.18-.35.19-.32,0,0,0-.05.06-.09h0Zm22.48,9.66h0l0,.1v.12l-.1.36-.13.38-.17.37-.18.39-.21.38-.24.38-.25.37-.27.35-.27.32-.28.3h0l-.08-.07-.12-.09-.13-.07-.28-.12-.3-.08-.33,0h-.36l-.37,0-.38.08-.4.11-.41.15-.42.18-.42.22-.42.25-.42.29-.41.32-.41.35-.39.37-.36.39-.32.4-.3.39-.26.41-.22.4-.19.4-.16.39-.11.38-.08.38,0,.36v.33l.05.33.08.29.06.14.07.13.08.12.09.12.11.11.11.09.12.09.13.07.27.13.31.08.33,0h.35l.37,0,.39-.07.4-.12.41-.15.41-.18.42-.22.43-.25.42-.29.41-.32.41-.35.39-.37.35-.39.33-.39.29-.4.26-.41.23-.39.19-.4.16-.4v0l.05,0,.19-.19.19-.2.19-.24.37-.53.35-.62.33-.68.27-.71.2-.68.13-.64,0-.3,0-.28v-.26l0-.24,0-.22,0-.2,0-.08,0,0,0,0,0-.07,0,0v0h0l0,0,0,0h0v0h0l0,0h-.11Zm-15.46,4.65-.41-.15-.4-.1-.42-.06-.42,0-.41,0-.41.07a12.15,12.15,0,0,0-3.34,2.59l-.36.22-.37.19-.39.14-.4.11-.41.07-.41,0a7.73,7.73,0,0,0-3.22.12l-.39.15-.38.18-.35.22-.54.44-.12.11-.29.32-.27.35-.23.38-.2.42-.16.42-.12.44-.07.43,0,.43v.43l0,.43.09.41.13.4.16.38.19.36.24.35.26.31.3.3a2.45,2.45,0,0,0,2,1h0l.24,0h.42l.41,0,.41-.07c2.49-.42,5-.25,7.38,3.36l.23.34a3.64,3.64,0,0,0,3.28,1.61l.41,0,.41-.06.4-.11.39-.15.37-.18.36-.22.34-.26.31-.29.3-.32.26-.35.24-.39.2-.41.16-.43.11-.43.08-.43,0-.44v-.43l-.05-.42-.09-.41-.12-.4-.16-.38-.2-.37-.23-.34-1.07-.88-.3-.29-.26-.32-.23-.34-.2-.37-.16-.38-.13-.4-.08-.41-.05-.43.08-2.85-.08-.42-.13-.39-.16-.39-.2-.36-.23-.34-.26-.32-.3-.29-.33-.27-.35-.22-.39-.19Z"
                transform="translate(-47.63 -100.21)" />
        </g>
    </g>
</svg>