<svg id="Layer_1" data-name="Layer 1" xmlns="http://www.w3.org/2000/svg" viewBox="0 0 239 101"><defs><style>.cls-1{fill:none;stroke:#000;stroke-miterlimit:10;stroke-width:4px;}</style></defs><path d="M316,137v21.06a26.15,26.15,0,0,0,0,51.72V230H85V209.73a26.14,26.14,0,0,0,0-51.62V137H316m.39-4H84.61A3.6,3.6,0,0,0,81,136.61v25.17a22.14,22.14,0,0,1,0,44.28v24.33A3.6,3.6,0,0,0,84.61,234H316.39a3.6,3.6,0,0,0,3.61-3.61V206.06h-.15a22.15,22.15,0,0,1,0-44.3H320V136.61a3.6,3.6,0,0,0-3.61-3.61Z" transform="translate(-81 -133)"/><line class="cls-1" x1="180.5" y1="0.5" x2="180.5" y2="100.5"/><g id="layer1"><path id="path5432-0-4-8-3-6-0-8" d="M270.11,194a1.19,1.19,0,0,0-1.07,1.29v10.77a9.78,9.78,0,0,0-.87,4,10,10,0,0,0,1.15,4.57,9.3,9.3,0,0,0-1.36.52,17.77,17.77,0,0,0-2,1.05l.23.37a17.42,17.42,0,0,1,1.91-1,10.51,10.51,0,0,1,1.38-.52,8.82,8.82,0,0,0,.53.82,9.92,9.92,0,0,0-1.65.61,20.94,20.94,0,0,0-2,1l.24.37a18.47,18.47,0,0,1,1.91-1,8.39,8.39,0,0,1,1.75-.63h0a9.17,9.17,0,0,0,.7.82,3.39,3.39,0,0,0-.52.1,10.69,10.69,0,0,0-1.69.61,18.82,18.82,0,0,0-2,1.06l.23.36a18.47,18.47,0,0,1,1.91-1,9.3,9.3,0,0,1,1.62-.59,3,3,0,0,1,.81-.11c.21.2.44.4.67.59a8.28,8.28,0,0,0-.9,3.74,8.56,8.56,0,0,0,4,7.17,2.32,2.32,0,0,0-.86,2.36c.39,1.36,2.23,2.09,4.11,1.62h0a4.44,4.44,0,0,0,1.9-1,4.41,4.41,0,0,0,1.89,1c1.88.47,3.72-.26,4.11-1.62h0a2.34,2.34,0,0,0-.86-2.37,9,9,0,0,0,2.38-2.25,11.81,11.81,0,0,1,2.21,1.52,5.41,5.41,0,0,0,6.13.73c1.86-1.13,2.83-3.44,2.81-6.28a1.75,1.75,0,0,0-1.73-1.75h0a1.73,1.73,0,0,0-1.69,1.78c0,2.06-.65,3-1.14,3.28s-1.14.34-2.16-.47a13.52,13.52,0,0,0-3-2,8.14,8.14,0,0,0-.71-5.47c.23-.19.45-.39.66-.59a3.15,3.15,0,0,1,.82.11,9.93,9.93,0,0,1,1.62.59,19.83,19.83,0,0,1,1.91,1l.23-.36a18.82,18.82,0,0,0-2-1.06,10.45,10.45,0,0,0-1.7-.61,3,3,0,0,0-.5-.1,10.69,10.69,0,0,0,.7-.81h0a9.71,9.71,0,0,1,1.75.63,18.47,18.47,0,0,1,1.91,1l.23-.37a20,20,0,0,0-2-1,10.37,10.37,0,0,0-1.66-.61c.19-.27.37-.54.53-.82a10,10,0,0,1,1.38.52,18.19,18.19,0,0,1,1.92,1l.23-.37a18.53,18.53,0,0,0-2-1.05,9.18,9.18,0,0,0-1.35-.52,9.69,9.69,0,0,0,.28-8.59V195.32a1.21,1.21,0,0,0-1.05-1.32h0a1,1,0,0,0-.5.18l-7.23,5.26a13.79,13.79,0,0,0-2.48-.23,13.6,13.6,0,0,0-2.47.24l-7.25-5.27a.92.92,0,0,0-.5-.18Zm.23,2.74,2.47,4.94a11.22,11.22,0,0,0-2.47,2.34v-7.28Zm20,0V204a11.56,11.56,0,0,0-2.48-2.35Zm-16.4,12h0a4.93,4.93,0,0,1,1.31.15,4,4,0,0,1,3.2,3.29.42.42,0,0,1-.07.27,4.39,4.39,0,0,1-4.53,1.36,4,4,0,0,1-3.21-3.3.35.35,0,0,1,.08-.26,4.14,4.14,0,0,1,3.22-1.51Zm12.5,0h0a4.16,4.16,0,0,1,3.23,1.51.39.39,0,0,1,.07.26,4,4,0,0,1-3.21,3.3,4.38,4.38,0,0,1-4.52-1.36.38.38,0,0,1-.08-.27,4,4,0,0,1,3.21-3.29,4.81,4.81,0,0,1,1.3-.15Zm-10.81,1a1.2,1.2,0,0,0-1.08,1.3h0a1.2,1.2,0,0,0,1.08,1.3h0a1.21,1.21,0,0,0,1.09-1.3h0a1.21,1.21,0,0,0-1.09-1.3Zm9.12,0a1.2,1.2,0,0,0-1.08,1.3h0a1.2,1.2,0,0,0,1.08,1.3h0a1.32,1.32,0,0,0,0-2.6ZM280.17,215c.72,0,1.31.39,1.31.87s-.59.87-1.31.87-1.3-.39-1.3-.87h0c0-.48.58-.87,1.3-.87Z" transform="translate(-81 -133)"/></g></svg>